<?xml version="1.0" encoding="UTF-8" standalone="no"?>
<!-- Created with Inkscape (http://www.inkscape.org/) -->

<svg
   version="1.1"
   id="svg1"
   width="141.11829"
   height="38.377075"
   viewBox="0 0 141.11828 38.377075"
   sodipodi:docname="karta (4).ai"
   xmlns:inkscape="http://www.inkscape.org/namespaces/inkscape"
   xmlns:sodipodi="http://sodipodi.sourceforge.net/DTD/sodipodi-0.dtd"
   xmlns="http://www.w3.org/2000/svg"
   xmlns:svg="http://www.w3.org/2000/svg">
  <defs
     id="defs1">
    <clipPath
       clipPathUnits="userSpaceOnUse"
       id="clipPath11-3">
      <path
         d="M 0,595.276 H 841.89 V 0 H 0 Z"
         transform="translate(-206.3164,-261.93281)"
         id="path11-1" />
    </clipPath>
    <clipPath
       clipPathUnits="userSpaceOnUse"
       id="clipPath13-0">
      <path
         d="M 0,595.276 H 841.89 V 0 H 0 Z"
         transform="translate(-213.64261,-258.71311)"
         id="path13-9" />
    </clipPath>
    <clipPath
       clipPathUnits="userSpaceOnUse"
       id="clipPath15-7">
      <path
         d="M 0,595.276 H 841.89 V 0 H 0 Z"
         transform="translate(-229.83301,-250.9289)"
         id="path15-7" />
    </clipPath>
    <clipPath
       clipPathUnits="userSpaceOnUse"
       id="clipPath17-3">
      <path
         d="M 0,595.276 H 841.89 V 0 H 0 Z"
         transform="translate(-234.24711,-262.60571)"
         id="path17-8" />
    </clipPath>
    <clipPath
       clipPathUnits="userSpaceOnUse"
       id="clipPath19-2">
      <path
         d="M 0,595.276 H 841.89 V 0 H 0 Z"
         transform="translate(-244.74511,-269.8664)"
         id="path19-8" />
    </clipPath>
    <clipPath
       clipPathUnits="userSpaceOnUse"
       id="clipPath21-5">
      <path
         d="M 0,595.276 H 841.89 V 0 H 0 Z"
         transform="translate(-258.3193,-255.80201)"
         id="path21-6" />
    </clipPath>
    <clipPath
       clipPathUnits="userSpaceOnUse"
       id="clipPath23-3">
      <path
         d="M 0,595.276 H 841.89 V 0 H 0 Z"
         transform="translate(-270.71581,-258.71311)"
         id="path23-5" />
    </clipPath>
    <clipPath
       clipPathUnits="userSpaceOnUse"
       id="clipPath25-8">
      <path
         d="M 0,595.276 H 841.89 V 0 H 0 Z"
         transform="translate(-286.54491,-265.12331)"
         id="path25-9" />
    </clipPath>
    <clipPath
       clipPathUnits="userSpaceOnUse"
       id="clipPath27-9">
      <path
         d="M 0,595.276 H 841.89 V 0 H 0 Z"
         transform="translate(-288.11521,-262.60571)"
         id="path27-6" />
    </clipPath>
    <clipPath
       clipPathUnits="userSpaceOnUse"
       id="clipPath29-0">
      <path
         d="M 0,595.276 H 841.89 V 0 H 0 Z"
         transform="translate(-303.16111,-250.9289)"
         id="path29-4" />
    </clipPath>
  </defs>
  <sodipodi:namedview
     id="namedview1"
     pagecolor="#ffffff"
     bordercolor="#000000"
     borderopacity="0.25"
     inkscape:showpageshadow="2"
     inkscape:pageopacity="0.0"
     inkscape:pagecheckerboard="0"
     inkscape:deskcolor="#d1d1d1" />
  <g
     id="layer-MC0"
     inkscape:groupmode="layer"
     inkscape:label="Layer 1"
     style="display:inline"
     transform="translate(-529.00001,-681)">
    <g
       id="g788">
      <path
         id="path10-5"
         d="M 0,0 V 1.018 C 0,4.232 -0.847,5.84 -2.539,5.84 H -3.99 V -4.822 h 1.451 C -0.847,-4.822 0,-3.215 0,0 M -6.574,-14.961 V 7.934 h 4.055 c 1.636,0 2.895,-0.53 3.778,-1.587 C 2.143,5.289 2.584,3.376 2.584,0.607 V 0.443 C 2.584,-2.326 2.14,-4.233 1.253,-5.28 0.365,-6.327 -0.9,-6.851 -2.544,-6.851 H -3.99 v -8.11 z"
         style="fill:#e4b010;fill-opacity:1;fill-rule:nonzero;stroke:none"
         transform="matrix(1.3333333,0,0,-1.3333333,537.76533,691.57867)"
         clip-path="url(#clipPath11-3)" />
      <path
         id="path12-6"
         d="M 0,0 V -1.864 H 4.187 V 0 C 4.187,2.922 3.499,4.383 2.126,4.383 0.708,4.383 0,2.922 0,0 m -2.486,-5.364 v 4.906 c 0,2.595 0.409,4.388 1.226,5.381 0.818,0.991 1.968,1.487 3.451,1.487 1.483,0 2.605,-0.49 3.369,-1.472 0.763,-0.98 1.144,-2.78 1.144,-5.396 v -3.5 H 0 v -1.864 c 0,-2.921 0.697,-4.382 2.093,-4.382 0.676,0 1.199,0.239 1.57,0.72 0.37,0.479 0.632,1.373 0.784,2.681 l 2.192,-0.359 c -0.153,-1.898 -0.6,-3.217 -1.341,-3.958 -0.741,-0.741 -1.816,-1.112 -3.222,-1.112 -1.406,0 -2.518,0.496 -3.336,1.488 -0.817,0.992 -1.226,2.785 -1.226,5.38"
         style="fill:#e4b010;fill-opacity:1;fill-rule:nonzero;stroke:none"
         transform="matrix(1.3333333,0,0,-1.3333333,547.5336,695.8716)"
         clip-path="url(#clipPath13-0)" />
      <path
         id="path14-6"
         d="m 0,0 c 0,1.243 -0.458,2.191 -1.374,2.846 l -2.257,1.602 c -1.68,1.113 -2.518,2.758 -2.518,4.939 0,1.766 0.376,3.009 1.128,3.728 0.752,0.72 1.771,1.079 3.058,1.079 1.286,0 2.29,-0.338 3.009,-1.013 0.719,-0.676 1.155,-1.909 1.308,-3.696 L 0.098,9.027 c -0.11,2.115 -0.78,3.172 -2.012,3.172 -1.232,0 -1.848,-0.861 -1.848,-2.583 0,-1.396 0.458,-2.431 1.374,-3.107 L -0.229,5.004 C 0.315,4.633 0.746,4.301 1.062,4.007 1.378,3.712 1.684,3.222 1.978,2.534 2.271,1.848 2.419,1.047 2.419,0.131 c 0,-1.679 -0.393,-2.861 -1.177,-3.549 -0.784,-0.686 -1.847,-1.03 -3.188,-1.03 -1.341,0 -2.394,0.398 -3.157,1.194 -0.763,0.796 -1.232,2.196 -1.406,4.203 l 2.322,0.425 c 0.087,-1.418 0.311,-2.409 0.67,-2.977 0.361,-0.567 0.856,-0.85 1.489,-0.85 C -0.677,-2.453 0,-1.635 0,0"
         style="fill:#e4b010;fill-opacity:1;fill-rule:nonzero;stroke:none"
         transform="matrix(1.3333333,0,0,-1.3333333,569.1208,706.25054)"
         clip-path="url(#clipPath15-7)" />
      <path
         id="path16-2"
         d="M 0,0 V 2.027 H 1.733 L 2.616,6.378 H 4.121 V 2.027 H 6.443 V 0 H 4.121 v -12.298 c 0,-1.156 0.316,-1.733 0.948,-1.733 0.414,0 0.851,0.174 1.309,0.523 l 0.49,-1.93 c -0.741,-0.458 -1.504,-0.687 -2.289,-0.687 -1.963,0 -2.944,1.45 -2.944,4.351 L 1.635,0 Z"
         style="fill:#e4b010;fill-opacity:1;fill-rule:nonzero;stroke:none"
         transform="matrix(1.3333333,0,0,-1.3333333,575.00627,690.68147)"
         clip-path="url(#clipPath17-3)" />
      <path
         id="path18-1"
         d="M 0,0 3.074,-8.21 6.116,0 H 8.603 L 4.22,-11.251 8.603,-22.895 H 6.051 l -3.205,8.471 -3.173,-8.471 H -2.813 L 1.668,-11.284 -2.551,0 Z"
         style="fill:#e4b010;fill-opacity:1;fill-rule:nonzero;stroke:none"
         transform="matrix(1.3333333,0,0,-1.3333333,589.0036,681.00054)"
         clip-path="url(#clipPath19-2)" />
      <path
         id="path20-7"
         d="m 0,0 c 0,-1.962 0.125,-3.511 0.376,-4.644 0.251,-1.133 0.54,-1.859 0.867,-2.174 0.327,-0.317 0.763,-0.475 1.308,-0.475 1.178,0 1.766,1.352 1.766,4.056 V 3.238 C 4.317,5.941 3.739,7.294 2.584,7.294 2.082,7.294 1.662,7.141 1.324,6.836 0.986,6.53 0.687,5.855 0.425,4.809 0.163,3.762 0.021,2.312 0,0.458 Z m -2.388,8.831 h 1.537 L -0.196,5.985 C 0.305,8.21 1.417,9.321 3.14,9.321 4.295,9.321 5.179,8.831 5.789,7.85 6.399,6.869 6.705,5.069 6.705,2.453 V -2.453 C 6.705,-5.069 6.399,-6.868 5.789,-7.849 5.179,-8.83 4.295,-9.321 3.14,-9.321 1.548,-9.321 0.501,-8.296 0,-6.246 v -8.472 h -2.388 z"
         style="fill:#e4b010;fill-opacity:1;fill-rule:nonzero;stroke:none"
         transform="matrix(1.3333333,0,0,-1.3333333,607.10253,699.75307)"
         clip-path="url(#clipPath21-5)" />
      <path
         id="path22-1"
         d="M 0,0 V -1.864 H 4.187 V 0 C 4.187,2.922 3.499,4.383 2.126,4.383 0.708,4.383 0,2.922 0,0 m -2.486,-5.364 v 4.906 c 0,2.595 0.409,4.388 1.226,5.381 0.818,0.991 1.968,1.487 3.451,1.487 1.483,0 2.605,-0.49 3.369,-1.472 0.763,-0.98 1.144,-2.78 1.144,-5.396 v -3.5 H 0 v -1.864 c 0,-2.921 0.697,-4.382 2.093,-4.382 0.676,0 1.199,0.239 1.57,0.72 0.37,0.479 0.632,1.373 0.784,2.681 l 2.192,-0.359 c -0.153,-1.898 -0.6,-3.217 -1.341,-3.958 -0.741,-0.741 -1.816,-1.112 -3.222,-1.112 -1.406,0 -2.518,0.496 -3.336,1.488 -0.817,0.992 -1.226,2.785 -1.226,5.38"
         style="fill:#e4b010;fill-opacity:1;fill-rule:nonzero;stroke:none"
         transform="matrix(1.3333333,0,0,-1.3333333,623.6312,695.8716)"
         clip-path="url(#clipPath23-3)" />
      <path
         id="path24-6"
         d="M 0,0 0.654,-0.032 0.458,-2.813 c -0.306,0.153 -0.6,0.23 -0.883,0.23 -1.657,0 -2.497,-1.724 -2.518,-5.168 v -10.4 H -5.462 V -0.49 h 1.537 l 0.72,-3.009 C -2.77,-1.166 -1.7,0 0,0"
         style="fill:#e4b010;fill-opacity:1;fill-rule:nonzero;stroke:none"
         transform="matrix(1.3333333,0,0,-1.3333333,644.73667,687.32467)"
         clip-path="url(#clipPath25-8)" />
      <path
         id="path26-8"
         d="M 0,0 V 2.027 H 1.733 L 2.616,6.378 H 4.121 V 2.027 H 6.443 V 0 H 4.121 v -12.298 c 0,-1.156 0.316,-1.733 0.948,-1.733 0.414,0 0.851,0.174 1.309,0.523 l 0.49,-1.93 c -0.741,-0.458 -1.504,-0.687 -2.289,-0.687 -1.963,0 -2.944,1.45 -2.944,4.351 L 1.635,0 Z"
         style="fill:#e4b010;fill-opacity:1;fill-rule:nonzero;stroke:none"
         transform="matrix(1.3333333,0,0,-1.3333333,646.8304,690.68147)"
         clip-path="url(#clipPath27-9)" />
      <path
         id="path28-6"
         d="m 0,0 c 0,1.243 -0.458,2.191 -1.374,2.846 l -2.257,1.602 c -1.68,1.113 -2.518,2.758 -2.518,4.939 0,1.766 0.376,3.009 1.128,3.728 0.752,0.72 1.771,1.079 3.058,1.079 1.286,0 2.29,-0.338 3.009,-1.013 0.72,-0.676 1.156,-1.909 1.308,-3.696 L 0.098,9.027 c -0.11,2.115 -0.78,3.172 -2.012,3.172 -1.232,0 -1.848,-0.861 -1.848,-2.583 0,-1.396 0.458,-2.431 1.374,-3.107 L -0.229,5.004 C 0.315,4.633 0.746,4.301 1.062,4.007 1.379,3.712 1.685,3.222 1.979,2.534 2.272,1.848 2.42,1.047 2.42,0.131 c 0,-1.679 -0.393,-2.861 -1.178,-3.549 -0.784,-0.686 -1.847,-1.03 -3.188,-1.03 -1.341,0 -2.394,0.398 -3.157,1.194 -0.763,0.796 -1.232,2.196 -1.406,4.203 l 2.322,0.425 c 0.087,-1.418 0.311,-2.409 0.67,-2.977 0.361,-0.567 0.856,-0.85 1.489,-0.85 C -0.677,-2.453 0,-1.635 0,0"
         style="fill:#e4b010;fill-opacity:1;fill-rule:nonzero;stroke:none"
         transform="matrix(1.3333333,0,0,-1.3333333,666.8916,706.25054)"
         clip-path="url(#clipPath29-0)" />
    </g>
  </g>
</svg>
