<?xml version="1.0" encoding="UTF-8" standalone="no"?>
<!-- Created with Inkscape (http://www.inkscape.org/) -->

<svg
   version="1.1"
   id="svg1"
   width="33.650391"
   height="60.930542"
   viewBox="0 0 33.65039 60.930542"
   sodipodi:docname="karta (4).ai"
   xmlns:inkscape="http://www.inkscape.org/namespaces/inkscape"
   xmlns:sodipodi="http://sodipodi.sourceforge.net/DTD/sodipodi-0.dtd"
   xmlns:xlink="http://www.w3.org/1999/xlink"
   xmlns="http://www.w3.org/2000/svg"
   xmlns:svg="http://www.w3.org/2000/svg">
  <defs
     id="defs1">
    <linearGradient
       x1="0"
       y1="0"
       x2="1"
       y2="0"
       gradientUnits="userSpaceOnUse"
       gradientTransform="matrix(0,-381.35922,-381.35922,0,252.3833,421.00299)"
       spreadMethod="pad"
       id="linearGradient9">
      <stop
         style="stop-opacity:1;stop-color:#e4b010"
         offset="0"
         id="stop1" />
      <stop
         style="stop-opacity:1;stop-color:#e4b010"
         offset="0.0231572"
         id="stop2" />
      <stop
         style="stop-opacity:1;stop-color:#ffffff"
         offset="0.17933566"
         id="stop3" />
      <stop
         style="stop-opacity:1;stop-color:#ffffff"
         offset="0.384209"
         id="stop4" />
      <stop
         style="stop-opacity:1;stop-color:#ffffff"
         offset="0.45058605"
         id="stop5" />
      <stop
         style="stop-opacity:1;stop-color:#ffffff"
         offset="0.466488"
         id="stop6" />
      <stop
         style="stop-opacity:1;stop-color:#ffffff"
         offset="0.53245531"
         id="stop7" />
      <stop
         style="stop-opacity:1;stop-color:#3bad3d"
         offset="0.873495"
         id="stop8" />
      <stop
         style="stop-opacity:1;stop-color:#3bad3d"
         offset="1"
         id="stop9" />
    </linearGradient>
    <linearGradient
       x1="0"
       y1="0"
       x2="1"
       y2="0"
       gradientUnits="userSpaceOnUse"
       gradientTransform="matrix(8.7165823,18.365768,18.365768,-8.7165823,253.15492,283.45364)"
       spreadMethod="pad"
       id="linearGradient200">
      <stop
         style="stop-opacity:1;stop-color:#58bb35"
         offset="0"
         id="stop199" />
      <stop
         style="stop-opacity:1;stop-color:#6ec72f"
         offset="1"
         id="stop200" />
    </linearGradient>
    <linearGradient
       x1="0"
       y1="0"
       x2="1"
       y2="0"
       gradientUnits="userSpaceOnUse"
       gradientTransform="matrix(-4.9405541,6.9967155,6.9967155,4.9405541,251.42001,285.07629)"
       spreadMethod="pad"
       id="linearGradient202">
      <stop
         style="stop-opacity:1;stop-color:#58bb35"
         offset="0"
         id="stop201" />
      <stop
         style="stop-opacity:1;stop-color:#6ec72f"
         offset="1"
         id="stop202" />
    </linearGradient>
    <clipPath
       clipPathUnits="userSpaceOnUse"
       id="clipPath771">
      <path
         d="M 0,595.276 H 841.89 V 0 H 0 Z"
         transform="translate(-380.91061,-353.00021)"
         id="path771" />
    </clipPath>
    <clipPath
       clipPathUnits="userSpaceOnUse"
       id="clipPath69-0-7-1">
      <path
         d="M 0,595.276 H 841.89 V 0 H 0 Z"
         id="path69-8-9-1" />
    </clipPath>
    <clipPath
       clipPathUnits="userSpaceOnUse"
       id="clipPath71-4-3-0">
      <path
         d="M 0,595.276 H 841.89 V 0 H 0 Z"
         id="path71-2-1-0" />
    </clipPath>
    <clipPath
       clipPathUnits="userSpaceOnUse"
       id="clipPath73-6-8-5">
      <path
         d="M 0,595.276 H 841.89 V 0 H 0 Z"
         transform="translate(-258.3271,-302.10031)"
         id="path73-5-9-6" />
    </clipPath>
    <clipPath
       clipPathUnits="userSpaceOnUse"
       id="clipPath75-5-3-3">
      <path
         d="M 0,595.276 H 841.89 V 0 H 0 Z"
         transform="translate(-255.52981,-305.44941)"
         id="path75-3-9-6" />
    </clipPath>
    <clipPath
       clipPathUnits="userSpaceOnUse"
       id="clipPath77-1-6-8">
      <path
         d="M 0,595.276 H 841.89 V 0 H 0 Z"
         id="path77-3-4-8" />
    </clipPath>
    <clipPath
       clipPathUnits="userSpaceOnUse"
       id="clipPath79-1-6-0">
      <path
         d="M 0,595.276 H 841.89 V 0 H 0 Z"
         id="path79-9-9-5" />
    </clipPath>
    <clipPath
       clipPathUnits="userSpaceOnUse"
       id="clipPath81-7-5-9">
      <path
         d="M 0,595.276 H 841.89 V 0 H 0 Z"
         id="path81-9-4-5" />
    </clipPath>
    <clipPath
       clipPathUnits="userSpaceOnUse"
       id="clipPath83-0-8-8">
      <path
         d="M 0,595.276 H 841.89 V 0 H 0 Z"
         id="path83-5-4-2" />
    </clipPath>
    <clipPath
       clipPathUnits="userSpaceOnUse"
       id="clipPath85-4-5-5">
      <path
         d="M 0,595.276 H 841.89 V 0 H 0 Z"
         id="path85-4-6-0" />
    </clipPath>
    <clipPath
       clipPathUnits="userSpaceOnUse"
       id="clipPath87-6-8-3">
      <path
         d="M 0,595.276 H 841.89 V 0 H 0 Z"
         id="path87-8-9-7" />
    </clipPath>
    <clipPath
       clipPathUnits="userSpaceOnUse"
       id="clipPath89-7-3-2">
      <path
         d="M 0,595.276 H 841.89 V 0 H 0 Z"
         id="path89-3-9-8" />
    </clipPath>
    <clipPath
       clipPathUnits="userSpaceOnUse"
       id="clipPath91-5-2-9">
      <path
         d="M 0,595.276 H 841.89 V 0 H 0 Z"
         id="path91-2-7-7" />
    </clipPath>
    <clipPath
       clipPathUnits="userSpaceOnUse"
       id="clipPath93-1-0-4">
      <path
         d="M 0,595.276 H 841.89 V 0 H 0 Z"
         id="path93-6-9-6" />
    </clipPath>
    <clipPath
       clipPathUnits="userSpaceOnUse"
       id="clipPath95-5-8-1">
      <path
         d="M 0,595.276 H 841.89 V 0 H 0 Z"
         id="path95-0-7-1" />
    </clipPath>
    <clipPath
       clipPathUnits="userSpaceOnUse"
       id="clipPath97-0-9-2">
      <path
         d="M 0,595.276 H 841.89 V 0 H 0 Z"
         id="path97-0-7-9" />
    </clipPath>
    <clipPath
       clipPathUnits="userSpaceOnUse"
       id="clipPath99-5-7-8">
      <path
         d="M 0,595.276 H 841.89 V 0 H 0 Z"
         id="path99-4-9-3" />
    </clipPath>
    <clipPath
       clipPathUnits="userSpaceOnUse"
       id="clipPath101-5-0-7">
      <path
         d="M 0,595.276 H 841.89 V 0 H 0 Z"
         id="path101-3-8-8" />
    </clipPath>
    <clipPath
       clipPathUnits="userSpaceOnUse"
       id="clipPath103-9-1-0">
      <path
         d="M 0,595.276 H 841.89 V 0 H 0 Z"
         id="path103-9-4-0" />
    </clipPath>
    <clipPath
       clipPathUnits="userSpaceOnUse"
       id="clipPath105-5-8-4">
      <path
         d="M 0,595.276 H 841.89 V 0 H 0 Z"
         id="path105-4-1-6" />
    </clipPath>
    <clipPath
       clipPathUnits="userSpaceOnUse"
       id="clipPath107-1-1-9">
      <path
         d="M 0,595.276 H 841.89 V 0 H 0 Z"
         id="path107-5-5-6" />
    </clipPath>
    <clipPath
       clipPathUnits="userSpaceOnUse"
       id="clipPath109-2-3-1">
      <path
         d="M 0,595.276 H 841.89 V 0 H 0 Z"
         id="path109-9-6-7" />
    </clipPath>
    <clipPath
       clipPathUnits="userSpaceOnUse"
       id="clipPath111-5-4-2">
      <path
         d="M 0,595.276 H 841.89 V 0 H 0 Z"
         id="path111-7-3-7" />
    </clipPath>
    <clipPath
       clipPathUnits="userSpaceOnUse"
       id="clipPath113-0-5-2">
      <path
         d="M 0,595.276 H 841.89 V 0 H 0 Z"
         id="path113-4-9-1" />
    </clipPath>
    <clipPath
       clipPathUnits="userSpaceOnUse"
       id="clipPath115-2-6-6">
      <path
         d="M 0,595.276 H 841.89 V 0 H 0 Z"
         id="path115-2-2-9" />
    </clipPath>
    <clipPath
       clipPathUnits="userSpaceOnUse"
       id="clipPath117-3-4-8">
      <path
         d="M 0,595.276 H 841.89 V 0 H 0 Z"
         id="path117-4-4-5" />
    </clipPath>
    <clipPath
       clipPathUnits="userSpaceOnUse"
       id="clipPath119-3-4-5">
      <path
         d="M 0,595.276 H 841.89 V 0 H 0 Z"
         id="path119-7-7-9" />
    </clipPath>
    <clipPath
       clipPathUnits="userSpaceOnUse"
       id="clipPath121-9-2-3">
      <path
         d="M 0,595.276 H 841.89 V 0 H 0 Z"
         id="path121-8-4-4" />
    </clipPath>
    <clipPath
       clipPathUnits="userSpaceOnUse"
       id="clipPath123-9-5-4">
      <path
         d="M 0,595.276 H 841.89 V 0 H 0 Z"
         id="path123-2-4-7" />
    </clipPath>
    <clipPath
       clipPathUnits="userSpaceOnUse"
       id="clipPath125-1-5-9">
      <path
         d="M 0,595.276 H 841.89 V 0 H 0 Z"
         id="path125-2-1-3" />
    </clipPath>
    <clipPath
       clipPathUnits="userSpaceOnUse"
       id="clipPath127-2-3-3">
      <path
         d="M 0,595.276 H 841.89 V 0 H 0 Z"
         id="path127-4-7-1" />
    </clipPath>
    <clipPath
       clipPathUnits="userSpaceOnUse"
       id="clipPath129-9-8-9">
      <path
         d="M 0,595.276 H 841.89 V 0 H 0 Z"
         id="path129-1-7-2" />
    </clipPath>
    <clipPath
       clipPathUnits="userSpaceOnUse"
       id="clipPath131-2-2-7">
      <path
         d="M 0,595.276 H 841.89 V 0 H 0 Z"
         id="path131-2-6-2" />
    </clipPath>
    <clipPath
       clipPathUnits="userSpaceOnUse"
       id="clipPath133-8-2-0">
      <path
         d="M 0,595.276 H 841.89 V 0 H 0 Z"
         id="path133-9-3-9" />
    </clipPath>
    <clipPath
       clipPathUnits="userSpaceOnUse"
       id="clipPath135-5-7-9">
      <path
         d="M 0,595.276 H 841.89 V 0 H 0 Z"
         id="path135-6-9-7" />
    </clipPath>
    <clipPath
       clipPathUnits="userSpaceOnUse"
       id="clipPath137-1-3-0">
      <path
         d="M 0,595.276 H 841.89 V 0 H 0 Z"
         id="path137-0-0-0" />
    </clipPath>
    <clipPath
       clipPathUnits="userSpaceOnUse"
       id="clipPath139-6-0-8">
      <path
         d="M 0,595.276 H 841.89 V 0 H 0 Z"
         id="path139-5-0-8" />
    </clipPath>
    <clipPath
       clipPathUnits="userSpaceOnUse"
       id="clipPath141-7-9-1">
      <path
         d="M 0,595.276 H 841.89 V 0 H 0 Z"
         id="path141-1-5-7" />
    </clipPath>
    <clipPath
       clipPathUnits="userSpaceOnUse"
       id="clipPath143-7-2-9">
      <path
         d="M 0,595.276 H 841.89 V 0 H 0 Z"
         id="path143-0-2-4" />
    </clipPath>
    <clipPath
       clipPathUnits="userSpaceOnUse"
       id="clipPath145-5-8-6">
      <path
         d="M 0,595.276 H 841.89 V 0 H 0 Z"
         id="path145-5-1-8" />
    </clipPath>
    <clipPath
       clipPathUnits="userSpaceOnUse"
       id="clipPath147-1-1-0">
      <path
         d="M 0,595.276 H 841.89 V 0 H 0 Z"
         id="path147-8-6-9" />
    </clipPath>
    <clipPath
       clipPathUnits="userSpaceOnUse"
       id="clipPath149-2-8-4">
      <path
         d="M 0,595.276 H 841.89 V 0 H 0 Z"
         id="path149-5-6-8" />
    </clipPath>
    <clipPath
       clipPathUnits="userSpaceOnUse"
       id="clipPath151-2-2-6">
      <path
         d="M 0,595.276 H 841.89 V 0 H 0 Z"
         id="path151-1-9-1" />
    </clipPath>
    <clipPath
       clipPathUnits="userSpaceOnUse"
       id="clipPath153-1-6-3">
      <path
         d="M 0,595.276 H 841.89 V 0 H 0 Z"
         transform="translate(-258.4795,-301.06081)"
         id="path153-5-2-4" />
    </clipPath>
    <clipPath
       clipPathUnits="userSpaceOnUse"
       id="clipPath155-6-9-9">
      <path
         d="M 0,595.276 H 841.89 V 0 H 0 Z"
         transform="translate(-258.39601,-300.07691)"
         id="path155-4-1-0" />
    </clipPath>
    <clipPath
       clipPathUnits="userSpaceOnUse"
       id="clipPath157-0-4-6">
      <path
         d="M 0,595.276 H 841.89 V 0 H 0 Z"
         transform="translate(-260.12401,-300.07691)"
         id="path157-5-9-8" />
    </clipPath>
    <clipPath
       clipPathUnits="userSpaceOnUse"
       id="clipPath159-5-7-0">
      <path
         d="M 0,595.276 H 841.89 V 0 H 0 Z"
         transform="translate(-261.85251,-300.07691)"
         id="path159-3-8-7" />
    </clipPath>
    <clipPath
       clipPathUnits="userSpaceOnUse"
       id="clipPath161-8-6-6">
      <path
         d="M 0,595.276 H 841.89 V 0 H 0 Z"
         transform="translate(-263.58061,-300.07691)"
         id="path161-6-3-2" />
    </clipPath>
    <clipPath
       clipPathUnits="userSpaceOnUse"
       id="clipPath163-0-2-5">
      <path
         d="M 0,595.276 H 841.89 V 0 H 0 Z"
         transform="translate(-264.3481,-319.90651)"
         id="path163-2-0-2" />
    </clipPath>
    <clipPath
       clipPathUnits="userSpaceOnUse"
       id="clipPath165-4-3-6">
      <path
         d="M 0,595.276 H 841.89 V 0 H 0 Z"
         transform="translate(-262.61961,-323.01831)"
         id="path165-7-6-8" />
    </clipPath>
    <clipPath
       clipPathUnits="userSpaceOnUse"
       id="clipPath167-6-0-0">
      <path
         d="M 0,595.276 H 841.89 V 0 H 0 Z"
         transform="translate(-262.61961,-321.95871)"
         id="path167-6-4-6" />
    </clipPath>
    <clipPath
       clipPathUnits="userSpaceOnUse"
       id="clipPath169-6-4-1">
      <path
         d="M 0,595.276 H 841.89 V 0 H 0 Z"
         transform="translate(-262.61961,-320.89911)"
         id="path169-3-1-6" />
    </clipPath>
    <clipPath
       clipPathUnits="userSpaceOnUse"
       id="clipPath171-8-3-0">
      <path
         d="M 0,595.276 H 841.89 V 0 H 0 Z"
         id="path171-3-4-4" />
    </clipPath>
    <clipPath
       clipPathUnits="userSpaceOnUse"
       id="clipPath173-4-9-9">
      <path
         d="M 0,595.276 H 841.89 V 0 H 0 Z"
         id="path173-7-3-7" />
    </clipPath>
    <clipPath
       clipPathUnits="userSpaceOnUse"
       id="clipPath175-7-0-8">
      <path
         d="M 0,595.276 H 841.89 V 0 H 0 Z"
         id="path175-4-2-3" />
    </clipPath>
    <clipPath
       clipPathUnits="userSpaceOnUse"
       id="clipPath177-7-1-8">
      <path
         d="M 0,595.276 H 841.89 V 0 H 0 Z"
         id="path177-9-0-3" />
    </clipPath>
    <clipPath
       clipPathUnits="userSpaceOnUse"
       id="clipPath179-9-5-4">
      <path
         d="M 0,595.276 H 841.89 V 0 H 0 Z"
         id="path179-1-0-7" />
    </clipPath>
    <clipPath
       clipPathUnits="userSpaceOnUse"
       id="clipPath181-6-9-1">
      <path
         d="M 0,595.276 H 841.89 V 0 H 0 Z"
         id="path181-3-5-3" />
    </clipPath>
    <clipPath
       clipPathUnits="userSpaceOnUse"
       id="clipPath183-0-0-9">
      <path
         d="M 0,595.276 H 841.89 V 0 H 0 Z"
         id="path183-0-1-0" />
    </clipPath>
    <clipPath
       clipPathUnits="userSpaceOnUse"
       id="clipPath185-4-4-3">
      <path
         d="M 0,595.276 H 841.89 V 0 H 0 Z"
         id="path185-2-5-6" />
    </clipPath>
    <clipPath
       clipPathUnits="userSpaceOnUse"
       id="clipPath187-3-4-9">
      <path
         d="M 0,595.276 H 841.89 V 0 H 0 Z"
         id="path187-7-4-8" />
    </clipPath>
    <clipPath
       clipPathUnits="userSpaceOnUse"
       id="clipPath189-5-6-2">
      <path
         d="M 0,595.276 H 841.89 V 0 H 0 Z"
         id="path189-4-6-5" />
    </clipPath>
    <clipPath
       clipPathUnits="userSpaceOnUse"
       id="clipPath191-1-0-3">
      <path
         d="M 0,595.276 H 841.89 V 0 H 0 Z"
         transform="translate(-262.9648,-290.51101)"
         id="path191-0-4-1" />
    </clipPath>
    <clipPath
       clipPathUnits="userSpaceOnUse"
       id="clipPath193-3-7-2">
      <path
         d="M 0,595.276 H 841.89 V 0 H 0 Z"
         transform="translate(-250.36431,-293.04901)"
         id="path193-8-6-9" />
    </clipPath>
    <clipPath
       clipPathUnits="userSpaceOnUse"
       id="clipPath195-8-4-2">
      <path
         d="M 0,595.276 H 841.89 V 0 H 0 Z"
         transform="translate(-249.0718,-282.15941)"
         id="path195-8-3-5" />
    </clipPath>
    <clipPath
       clipPathUnits="userSpaceOnUse"
       id="clipPath197-0-4-6">
      <path
         d="M 0,595.276 H 841.89 V 0 H 0 Z"
         transform="translate(-249.07081,-282.16231)"
         id="path197-6-4-1" />
    </clipPath>
    <clipPath
       clipPathUnits="userSpaceOnUse"
       id="clipPath199-7-8-4">
      <path
         d="M 0,595.276 H 841.89 V 0 H 0 Z"
         transform="translate(-249.0718,-282.15941)"
         id="path199-3-9-3" />
    </clipPath>
    <clipPath
       clipPathUnits="userSpaceOnUse"
       id="clipPath204-6-3-8">
      <path
         d="M 0,595.276 H 841.89 V 0 H 0 Z"
         transform="translate(-249.0718,-282.15941)"
         id="path204-3-4-7" />
    </clipPath>
    <clipPath
       clipPathUnits="userSpaceOnUse"
       id="clipPath206-6-4-7">
      <path
         d="M 0,595.276 H 841.89 V 0 H 0 Z"
         transform="translate(-249.07081,-282.16231)"
         id="path206-0-7-9" />
    </clipPath>
    <clipPath
       clipPathUnits="userSpaceOnUse"
       id="clipPath208-7-1-9">
      <path
         d="M 0,595.276 H 841.89 V 0 H 0 Z"
         transform="translate(-249.0718,-282.15941)"
         id="path208-0-1-2" />
    </clipPath>
    <linearGradient
       inkscape:collect="always"
       xlink:href="#linearGradient200"
       id="linearGradient787"
       gradientUnits="userSpaceOnUse"
       gradientTransform="matrix(11.622109,-24.48769,24.48769,11.622109,336.73455,730.38852)"
       x1="0"
       y1="0"
       x2="1"
       y2="0"
       spreadMethod="pad" />
    <linearGradient
       inkscape:collect="always"
       xlink:href="#linearGradient202"
       id="linearGradient788"
       gradientUnits="userSpaceOnUse"
       gradientTransform="matrix(-6.5874053,-9.3289538,9.3289538,-6.5874053,334.42134,728.22499)"
       x1="0"
       y1="0"
       x2="1"
       y2="0"
       spreadMethod="pad" />
  </defs>
  <sodipodi:namedview
     id="namedview1"
     pagecolor="#ffffff"
     bordercolor="#000000"
     borderopacity="0.25"
     inkscape:showpageshadow="2"
     inkscape:pageopacity="0.0"
     inkscape:pagecheckerboard="0"
     inkscape:deskcolor="#d1d1d1" />
  <g
     id="layer-MC0"
     inkscape:groupmode="layer"
     inkscape:label="Layer 1"
     style="display:none"
     transform="translate(-496.00001,-312.99997)">
    <path
       id="path9"
       d="M 127.659,357.112 H 377.108 V 192.702 H 127.659 Z"
       style="fill:url(#linearGradient9);stroke:none"
       transform="matrix(1.3333333,0,0,-1.3333333,0,793.70133)" />
    <path
       id="path770"
       d="M 0,0 H 16.683"
       style="fill:none;stroke:#414043;stroke-width:0.25;stroke-linecap:butt;stroke-linejoin:miter;stroke-miterlimit:10;stroke-dasharray:none;stroke-opacity:1"
       transform="matrix(1.3333333,0,0,-1.3333333,507.8808,323.0344)"
       clip-path="url(#clipPath771)" />
  </g>
  <g
     inkscape:groupmode="layer"
     id="layer1"
     inkscape:label="Layer 2"
     transform="translate(-496.00001,-312.99997)">
    <g
       id="g784-4-1"
       transform="matrix(1.0952956,0,0,1.0475382,142.21952,-394.08836)">
      <path
         id="path68-9-3-7"
         d="m 259.472,289.124 h -9.766 v 35.664 h 9.766 z"
         style="fill:#ffffff;fill-opacity:1;fill-rule:nonzero;stroke:none"
         transform="matrix(1.3333333,0,0,-1.3333333,-0.80533,1108.3267)"
         clip-path="url(#clipPath69-0-7-1)" />
      <path
         id="path70-1-0-2"
         d="m 255.53,313.024 h -1.762 v 10.64 h 1.762 z"
         style="fill:#e5af10;fill-opacity:1;fill-rule:nonzero;stroke:none"
         transform="matrix(1.3333333,0,0,-1.3333333,-0.80533,1108.3267)"
         clip-path="url(#clipPath71-4-3-0)" />
      <path
         id="path72-1-5-2"
         d="M 0,0 -1.657,0.017 -1.77,1.954 -0.018,2.223 Z"
         style="fill:#e5af10;fill-opacity:1;fill-rule:nonzero;stroke:none"
         transform="matrix(1.3333333,0,0,-1.3333333,343.6308,705.52626)"
         clip-path="url(#clipPath73-6-8-5)" />
      <path
         id="path74-7-1-1"
         d="M 0,0 -1.762,-0.037 V 2.282 L 0,2.319 Z"
         style="fill:#e5af10;fill-opacity:1;fill-rule:nonzero;stroke:none"
         transform="matrix(1.3333333,0,0,-1.3333333,339.90107,701.0608)"
         clip-path="url(#clipPath75-5-3-3)" />
      <path
         id="path76-6-8-4"
         d="m 259.22,289.556 h -9.181 v 34.99 h 9.181 z m 0.212,35.439 h -9.604 c -0.115,0 -0.211,-0.102 -0.211,-0.224 v -35.44 c 0,-0.122 0.096,-0.224 0.211,-0.224 h 9.604 c 0.061,0 0.107,0.024 0.141,0.061 l 0.004,0.004 0.008,0.008 c 0.035,0.037 0.058,0.086 0.058,0.151 v 35.44 c 0,0.122 -0.097,0.224 -0.211,0.224"
         style="fill:#214665;fill-opacity:1;fill-rule:nonzero;stroke:none"
         transform="matrix(1.3333333,0,0,-1.3333333,-0.80533,1108.3267)"
         clip-path="url(#clipPath77-1-6-8)" />
      <path
         id="path78-6-4-5"
         d="m 252.361,313.251 h -1.128 v 9.964 h 1.128 z m 0.212,10.413 h -1.551 c -0.115,0 -0.211,-0.102 -0.211,-0.225 v -10.413 c 0,-0.123 0.096,-0.225 0.211,-0.225 h 1.551 c 0.061,0 0.107,0.021 0.142,0.057 0.003,0.005 0.003,0.005 0.007,0.008 l 0.004,0.005 c 0.035,0.036 0.058,0.085 0.058,0.155 v 10.413 c 0,0.123 -0.096,0.225 -0.211,0.225"
         style="fill:#224765;fill-opacity:1;fill-rule:nonzero;stroke:none"
         transform="matrix(1.3333333,0,0,-1.3333333,-0.80533,1108.3267)"
         clip-path="url(#clipPath79-1-6-0)" />
      <path
         id="path80-2-6-8"
         d="m 255.164,313.251 h -1.128 v 9.964 h 1.128 z m 0.211,10.413 h -1.551 c -0.116,0 -0.211,-0.102 -0.211,-0.225 v -10.413 c 0,-0.123 0.095,-0.225 0.211,-0.225 h 1.551 c 0.065,0 0.111,0.021 0.146,0.057 0,0.005 0.003,0.005 0.003,0.008 0.004,0 0.004,0.005 0.008,0.005 0.03,0.036 0.053,0.085 0.053,0.155 v 10.413 c 0,0.123 -0.095,0.225 -0.21,0.225"
         style="fill:#224765;fill-opacity:1;fill-rule:nonzero;stroke:none"
         transform="matrix(1.3333333,0,0,-1.3333333,-0.80533,1108.3267)"
         clip-path="url(#clipPath81-7-5-9)" />
      <path
         id="path82-8-7-2"
         d="m 257.969,313.251 h -1.128 v 9.964 h 1.128 z m 0.211,10.413 h -1.551 c -0.114,0 -0.211,-0.102 -0.211,-0.225 v -10.413 c 0,-0.123 0.097,-0.225 0.211,-0.225 h 1.551 c 0.062,0 0.108,0.021 0.142,0.057 0.004,0.005 0.004,0.005 0.008,0.008 l 0.003,0.005 c 0.035,0.036 0.058,0.085 0.058,0.155 v 10.413 c 0,0.123 -0.096,0.225 -0.211,0.225"
         style="fill:#224765;fill-opacity:1;fill-rule:nonzero;stroke:none"
         transform="matrix(1.3333333,0,0,-1.3333333,-0.80533,1108.3267)"
         clip-path="url(#clipPath83-0-8-8)" />
      <path
         id="path84-2-5-6"
         d="m 252.361,290.476 h -1.128 v 9.967 h 1.128 z m 0.212,10.417 h -1.551 c -0.115,0 -0.211,-0.102 -0.211,-0.225 V 290.25 c 0,-0.122 0.096,-0.224 0.211,-0.224 h 1.551 c 0.061,0 0.107,0.024 0.142,0.061 0.003,0 0.003,0.004 0.007,0.004 0,0.004 0.004,0.004 0.004,0.009 0.035,0.036 0.058,0.086 0.058,0.15 v 10.418 c 0,0.123 -0.096,0.225 -0.211,0.225"
         style="fill:#224765;fill-opacity:1;fill-rule:nonzero;stroke:none"
         transform="matrix(1.3333333,0,0,-1.3333333,-0.80533,1108.3267)"
         clip-path="url(#clipPath85-4-5-5)" />
      <path
         id="path86-5-6-0"
         d="m 257.969,290.476 h -1.128 v 9.967 h 1.128 z m 0.211,10.417 h -1.551 c -0.114,0 -0.211,-0.102 -0.211,-0.225 V 290.25 c 0,-0.122 0.097,-0.224 0.211,-0.224 h 1.551 c 0.062,0 0.108,0.024 0.142,0.061 0.004,0 0.004,0.004 0.008,0.004 0,0.004 0.003,0.004 0.003,0.009 0.035,0.036 0.058,0.086 0.058,0.15 v 10.418 c 0,0.123 -0.096,0.225 -0.211,0.225"
         style="fill:#224765;fill-opacity:1;fill-rule:nonzero;stroke:none"
         transform="matrix(1.3333333,0,0,-1.3333333,-0.80533,1108.3267)"
         clip-path="url(#clipPath87-6-8-3)" />
      <path
         id="path88-4-5-7"
         d="m 252.361,309.317 h -1.128 v 1.867 h 1.128 z m 0.212,2.316 h -1.551 c -0.115,0 -0.211,-0.103 -0.211,-0.225 v -2.316 c 0,-0.123 0.096,-0.225 0.211,-0.225 h 1.551 c 0.061,0 0.107,0.02 0.142,0.057 0.003,0.004 0.003,0.004 0.007,0.008 l 0.004,0.005 c 0.035,0.036 0.058,0.085 0.058,0.155 v 2.316 c 0,0.122 -0.096,0.225 -0.211,0.225"
         style="fill:#224765;fill-opacity:1;fill-rule:nonzero;stroke:none"
         transform="matrix(1.3333333,0,0,-1.3333333,-0.80533,1108.3267)"
         clip-path="url(#clipPath89-7-3-2)" />
      <path
         id="path90-6-5-5"
         d="m 255.164,309.317 h -1.128 v 1.867 h 1.128 z m 0.211,2.316 h -1.551 c -0.116,0 -0.211,-0.103 -0.211,-0.225 v -2.316 c 0,-0.123 0.095,-0.225 0.211,-0.225 h 1.551 c 0.065,0 0.111,0.02 0.146,0.057 0,0.004 0.003,0.004 0.003,0.008 0.004,0 0.004,0.005 0.008,0.005 0.03,0.036 0.053,0.085 0.053,0.155 v 2.316 c 0,0.122 -0.095,0.225 -0.21,0.225"
         style="fill:#224765;fill-opacity:1;fill-rule:nonzero;stroke:none"
         transform="matrix(1.3333333,0,0,-1.3333333,-0.80533,1108.3267)"
         clip-path="url(#clipPath91-5-2-9)" />
      <path
         id="path92-7-8-1"
         d="m 257.969,309.317 h -1.128 v 1.867 h 1.128 z m 0.211,2.316 h -1.551 c -0.114,0 -0.211,-0.103 -0.211,-0.225 v -2.316 c 0,-0.123 0.097,-0.225 0.211,-0.225 h 1.551 c 0.062,0 0.108,0.02 0.142,0.057 0.004,0.004 0.004,0.004 0.008,0.008 l 0.003,0.005 c 0.035,0.036 0.058,0.085 0.058,0.155 v 2.316 c 0,0.122 -0.096,0.225 -0.211,0.225"
         style="fill:#224765;fill-opacity:1;fill-rule:nonzero;stroke:none"
         transform="matrix(1.3333333,0,0,-1.3333333,-0.80533,1108.3267)"
         clip-path="url(#clipPath93-1-0-4)" />
      <path
         id="path94-2-0-9"
         d="m 252.361,305.673 h -1.128 v 1.871 h 1.128 z m 0.212,2.32 h -1.551 c -0.115,0 -0.211,-0.102 -0.211,-0.225 v -2.321 c 0,-0.122 0.096,-0.224 0.211,-0.224 h 1.551 c 0.061,0 0.107,0.025 0.142,0.061 0.003,0.004 0.003,0.004 0.007,0.009 l 0.004,0.004 c 0.035,0.036 0.058,0.086 0.058,0.15 v 2.321 c 0,0.123 -0.096,0.225 -0.211,0.225"
         style="fill:#224765;fill-opacity:1;fill-rule:nonzero;stroke:none"
         transform="matrix(1.3333333,0,0,-1.3333333,-0.80533,1108.3267)"
         clip-path="url(#clipPath95-5-8-1)" />
      <path
         id="path96-2-2-0"
         d="m 255.164,305.673 h -1.128 v 1.871 h 1.128 z m 0.211,2.32 h -1.551 c -0.116,0 -0.211,-0.102 -0.211,-0.225 v -2.321 c 0,-0.122 0.095,-0.224 0.211,-0.224 h 1.551 c 0.065,0 0.111,0.025 0.146,0.061 0,0.004 0.003,0.004 0.003,0.009 0.004,0 0.004,0.004 0.008,0.004 0.03,0.036 0.053,0.086 0.053,0.15 v 2.321 c 0,0.123 -0.095,0.225 -0.21,0.225"
         style="fill:#224765;fill-opacity:1;fill-rule:nonzero;stroke:none"
         transform="matrix(1.3333333,0,0,-1.3333333,-0.80533,1108.3267)"
         clip-path="url(#clipPath97-0-9-2)" />
      <path
         id="path98-2-3-6"
         d="m 257.969,305.673 h -1.128 v 1.871 h 1.128 z m 0.211,2.32 h -1.551 c -0.114,0 -0.211,-0.102 -0.211,-0.225 v -2.321 c 0,-0.122 0.097,-0.224 0.211,-0.224 h 1.551 c 0.062,0 0.108,0.025 0.142,0.061 0.004,0.004 0.004,0.004 0.008,0.009 l 0.003,0.004 c 0.035,0.036 0.058,0.086 0.058,0.15 v 2.321 c 0,0.123 -0.096,0.225 -0.211,0.225"
         style="fill:#224765;fill-opacity:1;fill-rule:nonzero;stroke:none"
         transform="matrix(1.3333333,0,0,-1.3333333,-0.80533,1108.3267)"
         clip-path="url(#clipPath99-5-7-8)" />
      <path
         id="path100-7-6-7"
         d="m 252.361,302.184 h -1.128 v 1.871 h 1.128 z m 0.212,2.32 h -1.551 c -0.115,0 -0.211,-0.102 -0.211,-0.224 v -2.321 c 0,-0.123 0.096,-0.225 0.211,-0.225 h 1.551 c 0.061,0 0.107,0.025 0.142,0.062 0.003,0 0.003,0.004 0.007,0.004 0,0.004 0.004,0.004 0.004,0.008 0.035,0.036 0.058,0.086 0.058,0.151 v 2.321 c 0,0.122 -0.096,0.224 -0.211,0.224"
         style="fill:#224765;fill-opacity:1;fill-rule:nonzero;stroke:none"
         transform="matrix(1.3333333,0,0,-1.3333333,-0.80533,1108.3267)"
         clip-path="url(#clipPath101-5-0-7)" />
      <path
         id="path102-7-3-2"
         d="m 255.164,302.184 h -1.128 v 1.871 h 1.128 z m 0.211,2.32 h -1.551 c -0.116,0 -0.211,-0.102 -0.211,-0.224 v -2.321 c 0,-0.123 0.095,-0.225 0.211,-0.225 h 1.551 c 0.065,0 0.111,0.025 0.146,0.062 l 0.003,0.004 c 0.004,0.004 0.004,0.004 0.008,0.008 0.03,0.036 0.053,0.086 0.053,0.151 v 2.321 c 0,0.122 -0.095,0.224 -0.21,0.224"
         style="fill:#224765;fill-opacity:1;fill-rule:nonzero;stroke:none"
         transform="matrix(1.3333333,0,0,-1.3333333,-0.80533,1108.3267)"
         clip-path="url(#clipPath103-9-1-0)" />
      <path
         id="path104-4-8-9"
         d="m 257.969,302.184 h -1.128 v 1.871 h 1.128 z m 0.211,2.32 h -1.551 c -0.114,0 -0.211,-0.102 -0.211,-0.224 v -2.321 c 0,-0.123 0.097,-0.225 0.211,-0.225 h 1.551 c 0.062,0 0.108,0.025 0.142,0.062 0.004,0 0.004,0.004 0.008,0.004 0,0.004 0.003,0.004 0.003,0.008 0.035,0.036 0.058,0.086 0.058,0.151 v 2.321 c 0,0.122 -0.096,0.224 -0.211,0.224"
         style="fill:#224765;fill-opacity:1;fill-rule:nonzero;stroke:none"
         transform="matrix(1.3333333,0,0,-1.3333333,-0.80533,1108.3267)"
         clip-path="url(#clipPath105-5-8-4)" />
      <path
         id="path106-7-9-9"
         d="m 260.662,316.215 h -2.008 v 1.75 h 2.008 z"
         style="fill:#e5af10;fill-opacity:1;fill-rule:nonzero;stroke:none"
         transform="matrix(1.3333333,0,0,-1.3333333,-0.80533,1108.3267)"
         clip-path="url(#clipPath107-1-1-9)" />
      <path
         id="path108-7-6-0"
         d="m 260.662,313.46 h -2.008 v 1.75 h 2.008 z"
         style="fill:#e5af10;fill-opacity:1;fill-rule:nonzero;stroke:none"
         transform="matrix(1.3333333,0,0,-1.3333333,-0.80533,1108.3267)"
         clip-path="url(#clipPath109-2-3-1)" />
      <path
         id="path110-3-9-8"
         d="m 263.828,313.46 h -2.008 v 1.75 h 2.008 z"
         style="fill:#e5af10;fill-opacity:1;fill-rule:nonzero;stroke:none"
         transform="matrix(1.3333333,0,0,-1.3333333,-0.80533,1108.3267)"
         clip-path="url(#clipPath111-5-4-2)" />
      <path
         id="path112-2-1-7"
         d="m 260.662,308.028 h -2.008 v 1.75 h 2.008 z"
         style="fill:#e5af10;fill-opacity:1;fill-rule:nonzero;stroke:none"
         transform="matrix(1.3333333,0,0,-1.3333333,-0.80533,1108.3267)"
         clip-path="url(#clipPath113-0-5-2)" />
      <path
         id="path114-1-3-0"
         d="m 263.828,308.028 h -2.008 v 1.75 h 2.008 z"
         style="fill:#e5af10;fill-opacity:1;fill-rule:nonzero;stroke:none"
         transform="matrix(1.3333333,0,0,-1.3333333,-0.80533,1108.3267)"
         clip-path="url(#clipPath115-2-6-6)" />
      <path
         id="path116-6-9-0"
         d="m 263.828,305.553 h -2.008 v 1.75 h 2.008 z"
         style="fill:#e5af10;fill-opacity:1;fill-rule:nonzero;stroke:none"
         transform="matrix(1.3333333,0,0,-1.3333333,-0.80533,1108.3267)"
         clip-path="url(#clipPath117-3-4-8)" />
      <path
         id="path118-9-3-7"
         d="m 260.662,302.799 h -2.008 v 1.75 h 2.008 z"
         style="fill:#e5af10;fill-opacity:1;fill-rule:nonzero;stroke:none"
         transform="matrix(1.3333333,0,0,-1.3333333,-0.80533,1108.3267)"
         clip-path="url(#clipPath119-3-4-5)" />
      <path
         id="path120-1-8-2"
         d="m 258.944,304.148 h 1.491 v -1.299 h -1.491 z m 0,2.754 h 1.491 v -1.299 h -1.491 z m 0,2.475 h 1.491 v -1.299 h -1.491 z m 0,2.754 h 1.491 v -1.299 h -1.491 z m 0,2.679 h 1.491 v -1.303 h -1.491 z m 3.164,-7.908 h 1.495 v -1.299 h -1.495 z m 0,2.475 h 1.495 v -1.299 h -1.495 z m 0,2.754 h 1.495 v -1.299 h -1.495 z m 0,2.679 h 1.495 v -1.303 h -1.495 z m 1.495,-11.961 h -1.495 v 1.299 h 1.495 z m -1.495,14.715 h 1.495 v -1.299 h -1.495 z m -3.164,0 h 1.491 v -1.299 h -1.491 z m -2.034,-26.567 h 8.901 v 28.458 h -8.901 z"
         style="fill:#ffffff;fill-opacity:1;fill-rule:nonzero;stroke:none"
         transform="matrix(1.3333333,0,0,-1.3333333,-0.80533,1108.3267)"
         clip-path="url(#clipPath121-9-2-3)" />
      <path
         id="path122-2-7-2"
         d="m 265.38,291.39 h -8.212 v 28.065 h 8.212 z m 0.258,28.515 h -8.728 c -0.141,0 -0.258,-0.103 -0.258,-0.225 v -28.515 c 0,-0.123 0.117,-0.224 0.258,-0.224 h 8.728 c 0.074,0 0.131,0.02 0.173,0.056 0.004,0.004 0.004,0.004 0.009,0.009 l 0.005,0.004 c 0.042,0.037 0.071,0.086 0.071,0.155 v 28.515 c 0,0.122 -0.118,0.225 -0.258,0.225"
         style="fill:#221d1d;fill-opacity:1;fill-rule:nonzero;stroke:none"
         transform="matrix(1.3333333,0,0,-1.3333333,-0.80533,1108.3267)"
         clip-path="url(#clipPath123-9-5-4)" />
      <path
         id="path124-4-5-4"
         d="m 260.781,310.689 h -2.107 v 1.572 h 2.107 z"
         style="fill:#ffffff;fill-opacity:1;fill-rule:nonzero;stroke:none"
         transform="matrix(1.3333333,0,0,-1.3333333,-0.80533,1108.3267)"
         clip-path="url(#clipPath125-1-5-9)" />
      <path
         id="path126-0-5-8"
         d="m 260.781,305.342 h -2.169 v 1.824 h 2.169 z"
         style="fill:#ffffff;fill-opacity:1;fill-rule:nonzero;stroke:none"
         transform="matrix(1.3333333,0,0,-1.3333333,-0.80533,1108.3267)"
         clip-path="url(#clipPath127-2-3-3)" />
      <path
         id="path128-5-2-4"
         d="m 260.435,316.265 h -1.491 v 1.299 h 1.491 z m 0.257,1.748 h -2.006 c -0.141,0 -0.258,-0.102 -0.258,-0.224 v -1.749 c 0,-0.122 0.117,-0.225 0.258,-0.225 h 2.006 c 0.08,0 0.136,0.025 0.179,0.058 0,0.004 0.004,0.004 0.004,0.008 0.005,0 0.005,0.004 0.009,0.004 0.043,0.037 0.066,0.09 0.066,0.155 v 1.749 c 0,0.122 -0.117,0.224 -0.258,0.224"
         style="fill:#221d1d;fill-opacity:1;fill-rule:nonzero;stroke:none"
         transform="matrix(1.3333333,0,0,-1.3333333,-0.80533,1108.3267)"
         clip-path="url(#clipPath129-9-8-9)" />
      <path
         id="path130-2-2-3"
         d="m 263.603,316.265 h -1.495 v 1.299 h 1.495 z m 0.258,1.748 h -2.011 c -0.136,0 -0.258,-0.102 -0.258,-0.224 v -1.749 c 0,-0.122 0.122,-0.225 0.258,-0.225 h 2.011 c 0.075,0 0.131,0.025 0.173,0.058 l 0.01,0.008 0.004,0.004 c 0.043,0.037 0.071,0.09 0.071,0.155 v 1.749 c 0,0.122 -0.118,0.224 -0.258,0.224"
         style="fill:#221d1d;fill-opacity:1;fill-rule:nonzero;stroke:none"
         transform="matrix(1.3333333,0,0,-1.3333333,-0.80533,1108.3267)"
         clip-path="url(#clipPath131-2-2-7)" />
      <path
         id="path132-9-4-9"
         d="m 260.435,313.507 h -1.491 v 1.303 h 1.491 z m 0.257,1.753 h -2.006 c -0.141,0 -0.258,-0.103 -0.258,-0.225 v -1.753 c 0,-0.122 0.117,-0.224 0.258,-0.224 h 2.006 c 0.08,0 0.136,0.024 0.179,0.061 0,0.004 0.004,0.004 0.004,0.008 0.005,0 0.005,0.005 0.009,0.005 0.043,0.036 0.066,0.085 0.066,0.15 v 1.753 c 0,0.122 -0.117,0.225 -0.258,0.225"
         style="fill:#221d1d;fill-opacity:1;fill-rule:nonzero;stroke:none"
         transform="matrix(1.3333333,0,0,-1.3333333,-0.80533,1108.3267)"
         clip-path="url(#clipPath133-8-2-0)" />
      <path
         id="path134-7-4-1"
         d="m 263.603,313.507 h -1.495 v 1.303 h 1.495 z m 0.258,1.753 h -2.011 c -0.136,0 -0.258,-0.103 -0.258,-0.225 v -1.753 c 0,-0.122 0.122,-0.224 0.258,-0.224 h 2.011 c 0.075,0 0.131,0.024 0.173,0.061 l 0.01,0.008 0.004,0.005 c 0.043,0.036 0.071,0.085 0.071,0.15 v 1.753 c 0,0.122 -0.118,0.225 -0.258,0.225"
         style="fill:#221d1d;fill-opacity:1;fill-rule:nonzero;stroke:none"
         transform="matrix(1.3333333,0,0,-1.3333333,-0.80533,1108.3267)"
         clip-path="url(#clipPath135-5-7-9)" />
      <path
         id="path136-2-2-1"
         d="m 260.435,310.831 h -1.491 v 1.299 h 1.491 z m 0.257,1.749 h -2.006 c -0.141,0 -0.258,-0.102 -0.258,-0.225 v -1.748 c 0,-0.123 0.117,-0.225 0.258,-0.225 h 2.006 c 0.08,0 0.136,0.024 0.179,0.061 l 0.004,0.004 c 0.005,0.004 0.005,0.004 0.009,0.009 0.043,0.032 0.066,0.085 0.066,0.151 v 1.748 c 0,0.123 -0.117,0.225 -0.258,0.225"
         style="fill:#221d1d;fill-opacity:1;fill-rule:nonzero;stroke:none"
         transform="matrix(1.3333333,0,0,-1.3333333,-0.80533,1108.3267)"
         clip-path="url(#clipPath137-1-3-0)" />
      <path
         id="path138-1-9-9"
         d="m 263.603,310.831 h -1.495 v 1.299 h 1.495 z m 0.258,1.749 h -2.011 c -0.136,0 -0.258,-0.102 -0.258,-0.225 v -1.748 c 0,-0.123 0.122,-0.225 0.258,-0.225 h 2.011 c 0.075,0 0.131,0.024 0.173,0.061 0.005,0 0.005,0.004 0.01,0.004 0,0.004 0.004,0.004 0.004,0.009 0.043,0.032 0.071,0.085 0.071,0.151 v 1.748 c 0,0.123 -0.118,0.225 -0.258,0.225"
         style="fill:#221d1d;fill-opacity:1;fill-rule:nonzero;stroke:none"
         transform="matrix(1.3333333,0,0,-1.3333333,-0.80533,1108.3267)"
         clip-path="url(#clipPath139-6-0-8)" />
      <path
         id="path140-6-5-1"
         d="m 260.435,308.078 h -1.491 v 1.299 h 1.491 z m 0.257,1.748 h -2.006 c -0.141,0 -0.258,-0.102 -0.258,-0.224 v -1.749 c 0,-0.122 0.117,-0.224 0.258,-0.224 h 2.006 c 0.08,0 0.136,0.024 0.179,0.057 0,0.004 0.004,0.004 0.004,0.008 0.005,0 0.005,0.004 0.009,0.004 0.043,0.037 0.066,0.086 0.066,0.155 v 1.749 c 0,0.122 -0.117,0.224 -0.258,0.224"
         style="fill:#221d1d;fill-opacity:1;fill-rule:nonzero;stroke:none"
         transform="matrix(1.3333333,0,0,-1.3333333,-0.80533,1108.3267)"
         clip-path="url(#clipPath141-7-9-1)" />
      <path
         id="path142-0-5-1"
         d="m 263.603,308.078 h -1.495 v 1.299 h 1.495 z m 0.258,1.748 h -2.011 c -0.136,0 -0.258,-0.102 -0.258,-0.224 v -1.749 c 0,-0.122 0.122,-0.224 0.258,-0.224 h 2.011 c 0.075,0 0.131,0.024 0.173,0.057 0.005,0.004 0.005,0.004 0.01,0.008 l 0.004,0.004 c 0.043,0.037 0.071,0.086 0.071,0.155 v 1.749 c 0,0.122 -0.118,0.224 -0.258,0.224"
         style="fill:#221d1d;fill-opacity:1;fill-rule:nonzero;stroke:none"
         transform="matrix(1.3333333,0,0,-1.3333333,-0.80533,1108.3267)"
         clip-path="url(#clipPath143-7-2-9)" />
      <path
         id="path144-4-5-6"
         d="m 260.435,305.602 h -1.491 v 1.299 h 1.491 z m 0.257,1.749 h -2.006 c -0.141,0 -0.258,-0.102 -0.258,-0.225 v -1.748 c 0,-0.123 0.117,-0.225 0.258,-0.225 h 2.006 c 0.08,0 0.136,0.024 0.179,0.061 l 0.004,0.004 c 0.005,0.004 0.005,0.004 0.009,0.008 0.043,0.033 0.066,0.086 0.066,0.152 v 1.748 c 0,0.123 -0.117,0.225 -0.258,0.225"
         style="fill:#221d1d;fill-opacity:1;fill-rule:nonzero;stroke:none"
         transform="matrix(1.3333333,0,0,-1.3333333,-0.80533,1108.3267)"
         clip-path="url(#clipPath145-5-8-6)" />
      <path
         id="path146-7-9-4"
         d="m 263.603,305.602 h -1.495 v 1.299 h 1.495 z m 0.258,1.749 h -2.011 c -0.136,0 -0.258,-0.102 -0.258,-0.225 v -1.748 c 0,-0.123 0.122,-0.225 0.258,-0.225 h 2.011 c 0.075,0 0.131,0.024 0.173,0.061 0.005,0 0.005,0.004 0.01,0.004 0,0.004 0.004,0.004 0.004,0.008 0.043,0.033 0.071,0.086 0.071,0.152 v 1.748 c 0,0.123 -0.118,0.225 -0.258,0.225"
         style="fill:#221d1d;fill-opacity:1;fill-rule:nonzero;stroke:none"
         transform="matrix(1.3333333,0,0,-1.3333333,-0.80533,1108.3267)"
         clip-path="url(#clipPath147-1-1-0)" />
      <path
         id="path148-0-8-2"
         d="m 260.435,302.849 h -1.491 v 1.299 h 1.491 z m 0.257,1.748 h -2.006 c -0.141,0 -0.258,-0.102 -0.258,-0.224 v -1.749 c 0,-0.122 0.117,-0.224 0.258,-0.224 h 2.006 c 0.08,0 0.136,0.02 0.179,0.057 0,0.004 0.004,0.004 0.004,0.008 0.005,0 0.005,0.004 0.009,0.004 0.043,0.037 0.066,0.086 0.066,0.155 v 1.749 c 0,0.122 -0.117,0.224 -0.258,0.224"
         style="fill:#221d1d;fill-opacity:1;fill-rule:nonzero;stroke:none"
         transform="matrix(1.3333333,0,0,-1.3333333,-0.80533,1108.3267)"
         clip-path="url(#clipPath149-2-8-4)" />
      <path
         id="path150-3-3-3"
         d="m 263.603,302.849 h -1.495 v 1.299 h 1.495 z m 0.258,1.748 h -2.011 c -0.136,0 -0.258,-0.102 -0.258,-0.224 v -1.749 c 0,-0.122 0.122,-0.224 0.258,-0.224 h 2.011 c 0.075,0 0.131,0.02 0.173,0.057 0.005,0.004 0.005,0.004 0.01,0.008 l 0.004,0.004 c 0.043,0.037 0.071,0.086 0.071,0.155 v 1.749 c 0,0.122 -0.118,0.224 -0.258,0.224"
         style="fill:#221d1d;fill-opacity:1;fill-rule:nonzero;stroke:none"
         transform="matrix(1.3333333,0,0,-1.3333333,-0.80533,1108.3267)"
         clip-path="url(#clipPath151-2-2-6)" />
      <path
         id="path152-5-9-1"
         d="m 0,0 h 5.328 c 0.332,0 0.332,0.45 0,0.45 H 0 C -0.333,0.45 -0.333,0 0,0"
         style="fill:#221d1d;fill-opacity:1;fill-rule:nonzero;stroke:none"
         transform="matrix(1.3333333,0,0,-1.3333333,343.834,706.91226)"
         clip-path="url(#clipPath153-1-6-3)" />
      <path
         id="path154-7-1-2"
         d="M 0,0 V -8.03 -8.031 C 0,-8.322 0.516,-8.322 0.516,-8.032 V -0.002 0 C 0.516,0.29 0,0.29 0,0"
         style="fill:#221d1d;fill-opacity:1;fill-rule:nonzero;stroke:none"
         transform="matrix(1.3333333,0,0,-1.3333333,343.72267,708.22413)"
         clip-path="url(#clipPath155-6-9-9)" />
      <path
         id="path156-8-7-8"
         d="M 0,0 V -8.03 -8.031 C 0,-8.322 0.516,-8.322 0.516,-8.032 V -0.002 0 C 0.516,0.29 0,0.29 0,0"
         style="fill:#221d1d;fill-opacity:1;fill-rule:nonzero;stroke:none"
         transform="matrix(1.3333333,0,0,-1.3333333,346.02667,708.22413)"
         clip-path="url(#clipPath157-0-4-6)" />
      <path
         id="path158-2-0-8"
         d="M 0,0 V -8.03 -8.031 C 0,-8.322 0.515,-8.322 0.515,-8.032 V -0.002 0 C 0.515,0.29 0,0.29 0,0"
         style="fill:#221d1d;fill-opacity:1;fill-rule:nonzero;stroke:none"
         transform="matrix(1.3333333,0,0,-1.3333333,348.33134,708.22413)"
         clip-path="url(#clipPath159-5-7-0)" />
      <path
         id="path160-4-6-4"
         d="M 0,0 V -8.03 -8.031 C 0,-8.322 0.516,-8.322 0.516,-8.032 V -0.002 0 C 0.516,0.29 0,0.29 0,0"
         style="fill:#221d1d;fill-opacity:1;fill-rule:nonzero;stroke:none"
         transform="matrix(1.3333333,0,0,-1.3333333,350.63547,708.22413)"
         clip-path="url(#clipPath161-8-6-6)" />
      <path
         id="path162-6-2-5"
         d="m 0,0 v 4.059 c 0,0.295 -0.459,0.296 -0.459,0 V 0 C -0.459,-0.296 0,-0.296 0,0"
         style="fill:#221d1d;fill-opacity:1;fill-rule:nonzero;stroke:none"
         transform="matrix(1.3333333,0,0,-1.3333333,351.6588,681.78466)"
         clip-path="url(#clipPath163-0-2-5)" />
      <path
         id="path164-9-5-0"
         d="m 0,0 h 2.998 c 0.295,0 0.295,0.459 0,0.459 H 0 C -0.296,0.459 -0.296,0 0,0"
         style="fill:#221d1d;fill-opacity:1;fill-rule:nonzero;stroke:none"
         transform="matrix(1.3333333,0,0,-1.3333333,349.35414,677.6356)"
         clip-path="url(#clipPath165-4-3-6)" />
      <path
         id="path166-2-4-3"
         d="m 0,0 h 2.998 c 0.295,0 0.295,0.459 0,0.459 H 0 C -0.296,0.459 -0.296,0 0,0"
         style="fill:#221d1d;fill-opacity:1;fill-rule:nonzero;stroke:none"
         transform="matrix(1.3333333,0,0,-1.3333333,349.35414,679.0484)"
         clip-path="url(#clipPath167-6-0-0)" />
      <path
         id="path168-8-3-7"
         d="m 0,0 h 2.998 c 0.295,0 0.295,0.459 0,0.459 H 0 C -0.296,0.459 -0.296,0 0,0"
         style="fill:#221d1d;fill-opacity:1;fill-rule:nonzero;stroke:none"
         transform="matrix(1.3333333,0,0,-1.3333333,349.35414,680.4612)"
         clip-path="url(#clipPath169-6-4-1)" />
      <path
         id="path170-4-4-5"
         d="m 252.032,296.907 h -1.918 v 2.226 h 1.918 z m -1.918,6.928 h 1.918 v -2.226 h -1.918 z m -2.333,-6.928 h -1.915 v 2.226 h 1.915 z m -1.915,6.928 h 1.915 v -2.226 h -1.915 z m -3.012,-14.15 h 11.465 v 16.23 h -11.465 z"
         style="fill:#ffffff;fill-opacity:1;fill-rule:nonzero;stroke:none"
         transform="matrix(1.3333333,0,0,-1.3333333,-0.80533,1108.3267)"
         clip-path="url(#clipPath171-8-3-0)" />
      <path
         id="path172-1-4-4"
         d="m 254.126,290.134 h -10.885 v 15.556 h 10.885 z m 0.193,16.005 h -11.272 c -0.105,0 -0.193,-0.102 -0.193,-0.224 v -16.006 c 0,-0.123 0.088,-0.224 0.193,-0.224 h 11.272 c 0.056,0 0.099,0.024 0.131,0.06 l 0.003,0.004 c 0.004,0.005 0.004,0.005 0.007,0.009 0.032,0.037 0.053,0.086 0.053,0.151 v 16.006 c 0,0.122 -0.088,0.224 -0.194,0.224"
         style="fill:#221d1d;fill-opacity:1;fill-rule:nonzero;stroke:none"
         transform="matrix(1.3333333,0,0,-1.3333333,-0.80533,1108.3267)"
         clip-path="url(#clipPath173-4-9-9)" />
      <path
         id="path174-6-0-7"
         d="m 252.375,301.632 h -2.417 v 2.806 h 2.417 z"
         style="fill:#e5af10;fill-opacity:1;fill-rule:nonzero;stroke:none"
         transform="matrix(1.3333333,0,0,-1.3333333,-0.80533,1108.3267)"
         clip-path="url(#clipPath175-7-0-8)" />
      <path
         id="path176-9-7-5"
         d="m 248.126,301.632 h -2.417 v 2.806 h 2.417 z"
         style="fill:#e5af10;fill-opacity:1;fill-rule:nonzero;stroke:none"
         transform="matrix(1.3333333,0,0,-1.3333333,-0.80533,1108.3267)"
         clip-path="url(#clipPath177-7-1-8)" />
      <path
         id="path178-6-6-2"
         d="m 252.375,296.83 h -2.417 v 2.806 h 2.417 z"
         style="fill:#e5af10;fill-opacity:1;fill-rule:nonzero;stroke:none"
         transform="matrix(1.3333333,0,0,-1.3333333,-0.80533,1108.3267)"
         clip-path="url(#clipPath179-9-5-4)" />
      <path
         id="path180-3-8-3"
         d="m 248.126,296.83 h -2.417 v 2.806 h 2.417 z"
         style="fill:#e5af10;fill-opacity:1;fill-rule:nonzero;stroke:none"
         transform="matrix(1.3333333,0,0,-1.3333333,-0.80533,1108.3267)"
         clip-path="url(#clipPath181-6-9-1)" />
      <path
         id="path182-3-5-7"
         d="m 252.125,301.822 h -1.918 v 2.226 h 1.918 z m 0.194,2.672 h -2.305 c -0.105,0 -0.194,-0.102 -0.194,-0.225 v -2.672 c 0,-0.122 0.089,-0.224 0.194,-0.224 h 2.305 c 0.056,0 0.098,0.024 0.13,0.061 0.004,0 0.004,0.004 0.008,0.004 0,0.004 0,0.004 0.003,0.009 0.032,0.036 0.053,0.085 0.053,0.15 v 2.672 c 0,0.123 -0.088,0.225 -0.194,0.225"
         style="fill:#221d1d;fill-opacity:1;fill-rule:nonzero;stroke:none"
         transform="matrix(1.3333333,0,0,-1.3333333,-0.80533,1108.3267)"
         clip-path="url(#clipPath183-0-0-9)" />
      <path
         id="path184-2-6-0"
         d="m 247.875,301.822 h -1.915 v 2.226 h 1.915 z m 0.193,2.672 h -2.301 c -0.106,0 -0.194,-0.102 -0.194,-0.225 v -2.672 c 0,-0.122 0.088,-0.224 0.194,-0.224 h 2.301 c 0.06,0 0.102,0.024 0.134,0.061 l 0.003,0.004 c 0.003,0.004 0.003,0.004 0.007,0.009 0.028,0.036 0.05,0.085 0.05,0.15 v 2.672 c 0,0.123 -0.089,0.225 -0.194,0.225"
         style="fill:#221d1d;fill-opacity:1;fill-rule:nonzero;stroke:none"
         transform="matrix(1.3333333,0,0,-1.3333333,-0.80533,1108.3267)"
         clip-path="url(#clipPath185-4-4-3)" />
      <path
         id="path186-6-8-1"
         d="m 252.125,297.12 h -1.918 v 2.226 h 1.918 z m 0.194,2.676 h -2.305 c -0.105,0 -0.194,-0.102 -0.194,-0.224 v -2.677 c 0,-0.122 0.089,-0.224 0.194,-0.224 h 2.305 c 0.056,0 0.098,0.024 0.13,0.061 0.004,0 0.004,0.004 0.008,0.004 0,0.004 0,0.004 0.003,0.008 0.032,0.037 0.053,0.086 0.053,0.151 v 2.677 c 0,0.122 -0.088,0.224 -0.194,0.224"
         style="fill:#221d1d;fill-opacity:1;fill-rule:nonzero;stroke:none"
         transform="matrix(1.3333333,0,0,-1.3333333,-0.80533,1108.3267)"
         clip-path="url(#clipPath187-3-4-9)" />
      <path
         id="path188-8-0-1"
         d="m 247.875,297.12 h -1.915 v 2.226 h 1.915 z m 0.193,2.676 h -2.301 c -0.106,0 -0.194,-0.102 -0.194,-0.224 v -2.677 c 0,-0.122 0.088,-0.224 0.194,-0.224 h 2.301 c 0.06,0 0.102,0.024 0.134,0.061 l 0.003,0.004 c 0.003,0.004 0.003,0.004 0.007,0.008 0.028,0.037 0.05,0.086 0.05,0.151 v 2.677 c 0,0.122 -0.089,0.224 -0.194,0.224"
         style="fill:#221d1d;fill-opacity:1;fill-rule:nonzero;stroke:none"
         transform="matrix(1.3333333,0,0,-1.3333333,-0.80533,1108.3267)"
         clip-path="url(#clipPath189-5-6-2)" />
      <path
         id="path190-5-9-6"
         d="m 0,0 -0.013,-0.135 c -0.119,-0.139 -0.104,-0.285 -0.019,-0.433 -0.228,-2.089 -0.861,-3.984 -2.495,-5.435 -1.385,-1.23 -3.046,-1.795 -4.82,-2.129 0,0 -1.158,-0.802 -1.855,-0.929 -0.697,-0.127 -1.394,-0.063 -1.394,-0.063 l -0.716,0.093 c -0.897,0.087 -1.794,0.18 -2.582,0.682 0,10e-4 -10e-4,0.002 -10e-4,0.003 -0.022,0.075 -0.084,0.081 -0.149,0.08 -1.173,0.596 -1.777,1.631 -2.136,2.833 -0.349,1.17 -0.414,2.375 -0.343,3.59 0.077,1.329 0.052,2.653 -0.232,3.961 -0.004,0.021 0.009,0.045 0.02,0.092 1.13,-0.722 2.34,-1.267 3.56,-1.792 l 0.325,1.198 0.249,0.922 c 0.157,0.453 0.351,0.889 0.655,1.277 0.423,0.727 1.022,1.29 1.696,1.771 2.336,1.661 4.853,3.009 7.418,4.269 0.749,0.368 1.5,0.731 2.225,1.223 0.049,-0.297 -0.041,-0.547 -0.057,-0.799 C -0.792,8.174 -0.507,6.101 -0.195,4.031 -0.01,2.811 0.093,1.585 0.048,0.351 0.044,0.232 0.066,0.109 0,0"
         style="fill:#ffffff;fill-opacity:1;fill-rule:nonzero;stroke:none"
         transform="matrix(1.3333333,0,0,-1.3333333,349.8144,720.97866)"
         clip-path="url(#clipPath191-1-0-3)" />
      <path
         id="path192-1-1-6"
         d="m 0,0 -0.25,-0.922 c -0.004,0.062 0.007,0.136 0.033,0.224 C -0.148,-0.464 -0.079,-0.229 0,0"
         style="fill:#ffffff;fill-opacity:1;fill-rule:nonzero;stroke:none"
         transform="matrix(1.3333333,0,0,-1.3333333,333.01374,717.59466)"
         clip-path="url(#clipPath193-3-7-2)" />
      <path
         id="path194-9-8-0"
         d="m 0,0 -0.009,0.008 c 0.002,-0.001 0.005,-0.002 0.008,-0.002 0,-0.001 0,-0.002 0,-0.003 C -0.001,0.002 0,0.001 0,0"
         style="fill:#ffffff;fill-opacity:1;fill-rule:nonzero;stroke:none"
         transform="matrix(1.3333333,0,0,-1.3333333,331.2904,732.11413)"
         clip-path="url(#clipPath195-8-4-2)" />
      <path
         id="path196-2-4-8"
         d="M 0,0 C -0.003,0.001 -0.005,0.003 -0.008,0.005 -0.006,0.004 -0.003,0.003 0,0.003 0,0.002 0,0.001 0,0"
         style="fill:#ffffff;fill-opacity:1;fill-rule:nonzero;stroke:none"
         transform="matrix(1.3333333,0,0,-1.3333333,331.28907,732.11026)"
         clip-path="url(#clipPath197-0-4-6)" />
      <path
         id="path198-5-4-4"
         d="m 0,0 c -0.062,0.008 -0.118,0.026 -0.151,0.086 0.066,0.001 0.127,-0.006 0.15,-0.08 0,-0.001 0,-0.002 0,-0.003 C -0.001,0.002 0,0.001 0,0"
         style="fill:#ffffff;fill-opacity:1;fill-rule:nonzero;stroke:none"
         transform="matrix(1.3333333,0,0,-1.3333333,331.2904,732.11413)"
         clip-path="url(#clipPath199-7-8-4)" />
      <path
         id="path200-6-3-4"
         d="m 346.03866,707.83871 c -3.42133,1.68 -6.776,3.47733 -9.89067,5.692 v 0 c -0.9,0.64 -1.69733,1.392 -2.26266,2.36133 v 0 c -0.608,0.78134 -0.888,1.70267 -1.16134,2.63334 v 0 c -0.12133,0.41333 0,0.58266 0.39734,0.72666 v 0 c 2.28533,0.82667 4.516,1.75467 6.00933,3.92934 v 0 c 0.768,-1.49334 1.344,-2.99867 1.95067,-4.49067 v 0 c 0.79733,-1.972 1.99066,-3.69467 3.32,-5.34133 v 0 c -0.0853,0.352 -0.15734,0.68933 -0.30934,1.02 v 0 c -0.56933,1.256 -1.17733,2.49866 -1.58266,3.824 v 0 c -0.064,0.12666 -0.14667,0.24666 -0.19334,0.38 v 0 c -0.572,1.652 -1.15333,3.30133 -1.58933,4.996 v 0 c -0.66133,2.57066 -1.16667,5.164 -1.104,7.83466 v 0 c 0.007,0.276 -0.0267,0.49734 0.396,0.41734 v 0 c 2.36533,-0.44534 4.57867,-1.19867 6.42533,-2.83867 v 0 c 2.18,-1.93467 3.024,-4.46 3.32667,-7.24533 v 0 c 0.044,-0.192 0.10267,-1.068 0.108,-1.22534 v 0 c 0.06,-1.64666 -0.0773,-3.28133 -0.324,-4.908 v 0 c -0.416,-2.76 -0.796,-5.524 -0.62533,-8.33066 v 0 c 0.0213,-0.336 0.14266,-0.66934 0.0747,-1.064 v 0 c -0.964,0.65466 -1.96666,1.13866 -2.96533,1.62933"
         style="fill:url(#linearGradient787);stroke:none;stroke-width:1.33333" />
      <path
         id="path202-8-2-9"
         d="m 327.47333,718.15471 c 0.38,1.74533 0.41333,3.50933 0.31067,5.28133 v 0 c -0.096,1.61867 -0.009,3.22534 0.45733,4.78534 v 0 c 0.47867,1.604 1.28267,2.984 2.848,3.77866 v 0 c 0.0867,-10e-4 0.168,0.008 0.19867,0.10667 v 0 c 0,10e-4 0,0.003 0,0.003 v 0 c 1.05066,0.67066 2.24799,0.79466 3.44533,0.912 v 0 c 0.29733,0.028 0.22666,-0.20934 0.212,-0.36667 v 0 c -0.10534,-1.044 -0.31334,-2.068 -0.68134,-3.056 v 0 c -0.0227,-0.092 -0.036,-0.18533 -0.0667,-0.27333 v 0 c -0.26934,-0.79467 -0.6,-1.564 -0.92934,-2.336 v 0 c -0.38666,-0.908 -0.79866,-1.796 -1.28399,-2.65334 v 0 c -0.35734,-0.628 -0.704,-1.26133 -1.056,-1.89333 v 0 c 0.0413,-0.0293 0.084,-0.0573 0.124,-0.0867 v 0 c 1.75066,1.77334 3.19999,3.78267 4.50933,5.90267 v 0 c 0.61866,1.11867 1.18666,2.26133 1.65466,3.54533 v 0 c 1.268,-1.75333 1.824,-3.59733 1.644,-5.65466 v 0 c -0.009,-0.12534 -0.008,-0.25467 -0.028,-0.37734 v 0 c -0.288,-1.67066 -1.32133,-2.78933 -2.71733,-3.62933 v 0 c -0.91733,-0.55333 -1.936,-0.892 -2.91733,-1.31333 v 0 c -1.94267,-0.83334 -3.896,-1.64667 -5.696,-2.796 v 0 c -0.0147,0.0613 -0.032,0.0947 -0.028,0.12133"
         style="fill:url(#linearGradient788);stroke:none;stroke-width:1.33333" />
      <path
         id="path203-2-3-6"
         d="m 0,0 -0.009,0.008 c 0.002,-0.001 0.005,-0.002 0.008,-0.002 0,-0.001 0,-0.002 0,-0.003 C -0.001,0.002 0,0.001 0,0"
         style="fill:#6ec72f;fill-opacity:1;fill-rule:nonzero;stroke:none"
         transform="matrix(1.3333333,0,0,-1.3333333,331.2904,732.11413)"
         clip-path="url(#clipPath204-6-3-8)" />
      <path
         id="path205-3-0-7"
         d="M 0,0 C -0.003,0.001 -0.005,0.003 -0.008,0.005 -0.006,0.004 -0.003,0.003 0,0.003 0,0.002 0,0.001 0,0"
         style="fill:#58bb35;fill-opacity:1;fill-rule:nonzero;stroke:none"
         transform="matrix(1.3333333,0,0,-1.3333333,331.28907,732.11026)"
         clip-path="url(#clipPath206-6-4-7)" />
      <path
         id="path207-8-1-6"
         d="m 0,0 c -0.062,0.008 -0.118,0.026 -0.151,0.086 0.066,0.001 0.127,-0.006 0.15,-0.08 0,-0.001 0,-0.002 0,-0.003 C -0.001,0.002 0,0.001 0,0"
         style="fill:#58bb35;fill-opacity:1;fill-rule:nonzero;stroke:none"
         transform="matrix(1.3333333,0,0,-1.3333333,331.2904,732.11413)"
         clip-path="url(#clipPath208-7-1-9)" />
    </g>
  </g>
</svg>
